<svg width="240" height="50" viewBox="0 0 240 50" fill="none" xmlns="http://www.w3.org/2000/svg">
<path d="M49.8295 16.5455L55.0114 31.2386H55.2159L60.3977 16.5455H62.6136L56.2045 34H54.0227L47.6136 16.5455H49.8295ZM67.446 16.5455V34H65.3324V16.5455H67.446ZM81.2294 20.9091C81.1271 20.0455 80.7124 19.375 79.9851 18.8977C79.2578 18.4205 78.3658 18.1818 77.3089 18.1818C76.5362 18.1818 75.8601 18.3068 75.2805 18.5568C74.7067 18.8068 74.2578 19.1506 73.9339 19.5881C73.6158 20.0256 73.4567 20.5227 73.4567 21.0795C73.4567 21.5455 73.5675 21.946 73.7891 22.2812C74.0163 22.6108 74.3061 22.8864 74.6584 23.108C75.0107 23.3239 75.38 23.5028 75.7663 23.6449C76.1527 23.7812 76.5078 23.892 76.8317 23.9773L78.6044 24.4545C79.0589 24.5739 79.5646 24.7386 80.1214 24.9489C80.6839 25.1591 81.2209 25.446 81.7322 25.8097C82.2493 26.1676 82.6754 26.6278 83.0107 27.1903C83.3459 27.7528 83.5135 28.4432 83.5135 29.2614C83.5135 30.2045 83.2663 31.0568 82.772 31.8182C82.2834 32.5795 81.5675 33.1847 80.6243 33.6335C79.6868 34.0824 78.5476 34.3068 77.2067 34.3068C75.9567 34.3068 74.8743 34.1051 73.9595 33.7017C73.0504 33.2983 72.3345 32.7358 71.8118 32.0142C71.2947 31.2926 71.0021 30.4545 70.9339 29.5H73.1158C73.1726 30.1591 73.3942 30.7045 73.7805 31.1364C74.1726 31.5625 74.6669 31.8807 75.2635 32.0909C75.8658 32.2955 76.5135 32.3977 77.2067 32.3977C78.0135 32.3977 78.7379 32.267 79.38 32.0057C80.022 31.7386 80.5305 31.3693 80.9055 30.8977C81.2805 30.4205 81.468 29.8636 81.468 29.2273C81.468 28.6477 81.3061 28.1761 80.9822 27.8125C80.6584 27.4489 80.2322 27.1534 79.7038 26.9261C79.1754 26.6989 78.6044 26.5 77.9908 26.3295L75.843 25.7159C74.4794 25.3239 73.3999 24.7642 72.6044 24.0369C71.8089 23.3097 71.4112 22.358 71.4112 21.1818C71.4112 20.2045 71.6754 19.3523 72.2038 18.625C72.7379 17.892 73.4538 17.3239 74.3516 16.9205C75.255 16.5114 76.2635 16.3068 77.3771 16.3068C78.5021 16.3068 79.5021 16.5085 80.3771 16.9119C81.2521 17.3097 81.9453 17.8551 82.4567 18.5483C82.9737 19.2415 83.2464 20.0284 83.2749 20.9091H81.2294ZM87.7045 34H85.4886L91.8977 16.5455H94.0795L100.489 34H98.2727L93.0568 19.3068H92.9205L87.7045 34ZM88.5227 27.1818H97.4545V29.0568H88.5227V27.1818ZM90.3636 14.8068L88.7955 14.7386C88.7955 13.8693 89.0426 13.1591 89.5369 12.608C90.0369 12.0511 90.6534 11.7727 91.3864 11.7727C91.7102 11.7727 91.9972 11.8295 92.2472 11.9432C92.4972 12.0511 92.7358 12.1761 92.9631 12.3182C93.1903 12.4602 93.4233 12.5881 93.6619 12.7017C93.9063 12.8097 94.1818 12.8636 94.4886 12.8636C94.8125 12.8636 95.0852 12.7386 95.3068 12.4886C95.5341 12.233 95.6477 11.9261 95.6477 11.5682L97.1818 11.7045C97.1818 12.5909 96.9318 13.2955 96.4318 13.8182C95.9375 14.3409 95.3239 14.6023 94.5909 14.6023C94.1989 14.6023 93.875 14.5483 93.6193 14.4403C93.3636 14.3267 93.1364 14.1989 92.9375 14.0568C92.7386 13.9148 92.5284 13.7898 92.3068 13.6818C92.0852 13.5682 91.8125 13.5114 91.4886 13.5114C91.1648 13.5114 90.8949 13.6392 90.679 13.8949C90.4688 14.1449 90.3636 14.4489 90.3636 14.8068ZM117.114 25.2727C117.114 27.1136 116.782 28.7045 116.117 30.0455C115.452 31.3864 114.54 32.4205 113.381 33.1477C112.222 33.875 110.898 34.2386 109.41 34.2386C107.921 34.2386 106.597 33.875 105.438 33.1477C104.279 32.4205 103.367 31.3864 102.702 30.0455C102.038 28.7045 101.705 27.1136 101.705 25.2727C101.705 23.4318 102.038 21.8409 102.702 20.5C103.367 19.1591 104.279 18.125 105.438 17.3977C106.597 16.6705 107.921 16.3068 109.41 16.3068C110.898 16.3068 112.222 16.6705 113.381 17.3977C114.54 18.125 115.452 19.1591 116.117 20.5C116.782 21.8409 117.114 23.4318 117.114 25.2727ZM115.069 25.2727C115.069 23.7614 114.816 22.4858 114.31 21.446C113.81 20.4062 113.131 19.6193 112.273 19.0852C111.421 18.5511 110.467 18.2841 109.41 18.2841C108.353 18.2841 107.396 18.5511 106.538 19.0852C105.685 19.6193 105.006 20.4062 104.501 21.446C104.001 22.4858 103.751 23.7614 103.751 25.2727C103.751 26.7841 104.001 28.0597 104.501 29.0994C105.006 30.1392 105.685 30.9261 106.538 31.4602C107.396 31.9943 108.353 32.2614 109.41 32.2614C110.467 32.2614 111.421 31.9943 112.273 31.4602C113.131 30.9261 113.81 30.1392 114.31 29.0994C114.816 28.0597 115.069 26.7841 115.069 25.2727ZM132.805 34H127.418V16.5455H133.043C134.737 16.5455 136.185 16.8949 137.39 17.5938C138.594 18.2869 139.518 19.2841 140.16 20.5852C140.802 21.8807 141.123 23.4318 141.123 25.2386C141.123 27.0568 140.799 28.6222 140.151 29.9347C139.504 31.2415 138.56 32.2472 137.322 32.9517C136.083 33.6506 134.577 34 132.805 34ZM129.532 32.125H132.668C134.112 32.125 135.308 31.8466 136.256 31.2898C137.205 30.733 137.913 29.9403 138.379 28.9119C138.844 27.8835 139.077 26.6591 139.077 25.2386C139.077 23.8295 138.847 22.6165 138.387 21.5994C137.927 20.5767 137.239 19.7926 136.325 19.2472C135.41 18.696 134.271 18.4205 132.907 18.4205H129.532V32.125ZM159.396 25.2727C159.396 27.1136 159.063 28.7045 158.398 30.0455C157.734 31.3864 156.822 32.4205 155.663 33.1477C154.504 33.875 153.18 34.2386 151.691 34.2386C150.202 34.2386 148.879 33.875 147.719 33.1477C146.56 32.4205 145.648 31.3864 144.984 30.0455C144.319 28.7045 143.987 27.1136 143.987 25.2727C143.987 23.4318 144.319 21.8409 144.984 20.5C145.648 19.1591 146.56 18.125 147.719 17.3977C148.879 16.6705 150.202 16.3068 151.691 16.3068C153.18 16.3068 154.504 16.6705 155.663 17.3977C156.822 18.125 157.734 19.1591 158.398 20.5C159.063 21.8409 159.396 23.4318 159.396 25.2727ZM157.35 25.2727C157.35 23.7614 157.097 22.4858 156.592 21.446C156.092 20.4062 155.413 19.6193 154.555 19.0852C153.702 18.5511 152.748 18.2841 151.691 18.2841C150.634 18.2841 149.677 18.5511 148.819 19.0852C147.967 19.6193 147.288 20.4062 146.782 21.446C146.282 22.4858 146.032 23.7614 146.032 25.2727C146.032 26.7841 146.282 28.0597 146.782 29.0994C147.288 30.1392 147.967 30.9261 148.819 31.4602C149.677 31.9943 150.634 32.2614 151.691 32.2614C152.748 32.2614 153.702 31.9943 154.555 31.4602C155.413 30.9261 156.092 30.1392 156.592 29.0994C157.097 28.0597 157.35 26.7841 157.35 25.2727ZM169.7 34V16.5455H175.597C176.961 16.5455 178.08 16.7784 178.955 17.2443C179.83 17.7045 180.478 18.3381 180.898 19.1449C181.319 19.9517 181.529 20.8693 181.529 21.8977C181.529 22.9261 181.319 23.8381 180.898 24.6335C180.478 25.429 179.833 26.054 178.964 26.5085C178.094 26.9574 176.984 27.1818 175.631 27.1818H170.859V25.2727H175.563C176.495 25.2727 177.245 25.1364 177.813 24.8636C178.387 24.5909 178.802 24.2045 179.058 23.7045C179.319 23.1989 179.45 22.5966 179.45 21.8977C179.45 21.1989 179.319 20.5881 179.058 20.0653C178.796 19.5426 178.379 19.1392 177.805 18.8551C177.231 18.5653 176.472 18.4205 175.529 18.4205H171.813V34H169.7ZM177.915 26.1591L182.211 34H179.756L175.529 26.1591H177.915ZM185.051 34V16.5455H195.585V18.4205H187.165V24.3182H195.04V26.1932H187.165V32.125H195.722V34H185.051ZM201.509 16.5455V34H199.395V16.5455H201.509ZM219.587 16.5455V34H217.542L208.031 20.2955H207.86V34H205.746V16.5455H207.792L217.337 30.2841H217.508V16.5455H219.587ZM238.544 25.2727C238.544 27.1136 238.212 28.7045 237.547 30.0455C236.882 31.3864 235.97 32.4205 234.811 33.1477C233.652 33.875 232.328 34.2386 230.839 34.2386C229.351 34.2386 228.027 33.875 226.868 33.1477C225.709 32.4205 224.797 31.3864 224.132 30.0455C223.467 28.7045 223.135 27.1136 223.135 25.2727C223.135 23.4318 223.467 21.8409 224.132 20.5C224.797 19.1591 225.709 18.125 226.868 17.3977C228.027 16.6705 229.351 16.3068 230.839 16.3068C232.328 16.3068 233.652 16.6705 234.811 17.3977C235.97 18.125 236.882 19.1591 237.547 20.5C238.212 21.8409 238.544 23.4318 238.544 25.2727ZM236.499 25.2727C236.499 23.7614 236.246 22.4858 235.74 21.446C235.24 20.4062 234.561 19.6193 233.703 19.0852C232.851 18.5511 231.896 18.2841 230.839 18.2841C229.783 18.2841 228.825 18.5511 227.967 19.0852C227.115 19.6193 226.436 20.4062 225.93 21.446C225.43 22.4858 225.18 23.7614 225.18 25.2727C225.18 26.7841 225.43 28.0597 225.93 29.0994C226.436 30.1392 227.115 30.9261 227.967 31.4602C228.825 31.9943 229.783 32.2614 230.839 32.2614C231.896 32.2614 232.851 31.9943 233.703 31.4602C234.561 30.9261 235.24 30.1392 235.74 29.0994C236.246 28.0597 236.499 26.7841 236.499 25.2727Z" fill="white"/>
<path d="M33.9167 12.3333H24.6667V3.08333C24.6667 1.38076 23.2859 0 21.5833 0H15.4167C13.7141 0 12.3333 1.38076 12.3333 3.08333V12.3333H3.08333C1.38076 12.3333 0 13.7141 0 15.4167V21.5833C0 23.2859 1.38076 24.6667 3.08333 24.6667H12.3333V46.25C12.3333 47.9526 13.7141 49.3333 15.4167 49.3333H21.5833C23.2859 49.3333 24.6667 47.9526 24.6667 46.25V24.6667H33.9167C35.6192 24.6667 37 23.2859 37 21.5833V15.4167C37 13.7141 35.6192 12.3333 33.9167 12.3333Z" fill="white"/>
</svg>
